<svg xmlns="http://www.w3.org/2000/svg" width="200" height="200" viewBox="0 0 200 200" shape-rendering="crispEdges">
<rect width="200" height="200" fill="#efeafd"/>
<rect x="12" y="12" width="4" height="4" fill="#3b1f8e" opacity="0.05"/><rect x="36" y="12" width="4" height="4" fill="#3b1f8e" opacity="0.05"/><rect x="60" y="12" width="4" height="4" fill="#3b1f8e" opacity="0.05"/><rect x="84" y="12" width="4" height="4" fill="#3b1f8e" opacity="0.05"/><rect x="108" y="12" width="4" height="4" fill="#3b1f8e" opacity="0.05"/><rect x="132" y="12" width="4" height="4" fill="#3b1f8e" opacity="0.05"/><rect x="156" y="12" width="4" height="4" fill="#3b1f8e" opacity="0.05"/><rect x="180" y="12" width="4" height="4" fill="#3b1f8e" opacity="0.05"/><rect x="12" y="36" width="4" height="4" fill="#3b1f8e" opacity="0.05"/><rect x="36" y="36" width="4" height="4" fill="#3b1f8e" opacity="0.05"/><rect x="60" y="36" width="4" height="4" fill="#3b1f8e" opacity="0.05"/><rect x="84" y="36" width="4" height="4" fill="#3b1f8e" opacity="0.05"/><rect x="108" y="36" width="4" height="4" fill="#3b1f8e" opacity="0.05"/><rect x="132" y="36" width="4" height="4" fill="#3b1f8e" opacity="0.05"/><rect x="156" y="36" width="4" height="4" fill="#3b1f8e" opacity="0.05"/><rect x="180" y="36" width="4" height="4" fill="#3b1f8e" opacity="0.05"/><rect x="12" y="60" width="4" height="4" fill="#3b1f8e" opacity="0.05"/><rect x="36" y="60" width="4" height="4" fill="#3b1f8e" opacity="0.05"/><rect x="60" y="60" width="4" height="4" fill="#3b1f8e" opacity="0.05"/><rect x="84" y="60" width="4" height="4" fill="#3b1f8e" opacity="0.05"/><rect x="108" y="60" width="4" height="4" fill="#3b1f8e" opacity="0.05"/><rect x="132" y="60" width="4" height="4" fill="#3b1f8e" opacity="0.05"/><rect x="156" y="60" width="4" height="4" fill="#3b1f8e" opacity="0.05"/><rect x="180" y="60" width="4" height="4" fill="#3b1f8e" opacity="0.05"/><rect x="12" y="84" width="4" height="4" fill="#3b1f8e" opacity="0.05"/><rect x="36" y="84" width="4" height="4" fill="#3b1f8e" opacity="0.05"/><rect x="60" y="84" width="4" height="4" fill="#3b1f8e" opacity="0.05"/><rect x="84" y="84" width="4" height="4" fill="#3b1f8e" opacity="0.05"/><rect x="108" y="84" width="4" height="4" fill="#3b1f8e" opacity="0.05"/><rect x="132" y="84" width="4" height="4" fill="#3b1f8e" opacity="0.05"/><rect x="156" y="84" width="4" height="4" fill="#3b1f8e" opacity="0.05"/><rect x="180" y="84" width="4" height="4" fill="#3b1f8e" opacity="0.05"/><rect x="12" y="108" width="4" height="4" fill="#3b1f8e" opacity="0.05"/><rect x="36" y="108" width="4" height="4" fill="#3b1f8e" opacity="0.05"/><rect x="60" y="108" width="4" height="4" fill="#3b1f8e" opacity="0.05"/><rect x="84" y="108" width="4" height="4" fill="#3b1f8e" opacity="0.05"/><rect x="108" y="108" width="4" height="4" fill="#3b1f8e" opacity="0.05"/><rect x="132" y="108" width="4" height="4" fill="#3b1f8e" opacity="0.05"/><rect x="156" y="108" width="4" height="4" fill="#3b1f8e" opacity="0.05"/><rect x="180" y="108" width="4" height="4" fill="#3b1f8e" opacity="0.05"/><rect x="12" y="132" width="4" height="4" fill="#3b1f8e" opacity="0.05"/><rect x="36" y="132" width="4" height="4" fill="#3b1f8e" opacity="0.05"/><rect x="60" y="132" width="4" height="4" fill="#3b1f8e" opacity="0.05"/><rect x="84" y="132" width="4" height="4" fill="#3b1f8e" opacity="0.05"/><rect x="108" y="132" width="4" height="4" fill="#3b1f8e" opacity="0.05"/><rect x="132" y="132" width="4" height="4" fill="#3b1f8e" opacity="0.05"/><rect x="156" y="132" width="4" height="4" fill="#3b1f8e" opacity="0.05"/><rect x="180" y="132" width="4" height="4" fill="#3b1f8e" opacity="0.05"/><rect x="12" y="156" width="4" height="4" fill="#3b1f8e" opacity="0.05"/><rect x="36" y="156" width="4" height="4" fill="#3b1f8e" opacity="0.05"/><rect x="60" y="156" width="4" height="4" fill="#3b1f8e" opacity="0.05"/><rect x="84" y="156" width="4" height="4" fill="#3b1f8e" opacity="0.05"/><rect x="108" y="156" width="4" height="4" fill="#3b1f8e" opacity="0.05"/><rect x="132" y="156" width="4" height="4" fill="#3b1f8e" opacity="0.05"/><rect x="156" y="156" width="4" height="4" fill="#3b1f8e" opacity="0.05"/><rect x="180" y="156" width="4" height="4" fill="#3b1f8e" opacity="0.05"/><rect x="12" y="180" width="4" height="4" fill="#3b1f8e" opacity="0.05"/><rect x="36" y="180" width="4" height="4" fill="#3b1f8e" opacity="0.05"/><rect x="60" y="180" width="4" height="4" fill="#3b1f8e" opacity="0.05"/><rect x="84" y="180" width="4" height="4" fill="#3b1f8e" opacity="0.05"/><rect x="108" y="180" width="4" height="4" fill="#3b1f8e" opacity="0.05"/><rect x="132" y="180" width="4" height="4" fill="#3b1f8e" opacity="0.05"/><rect x="156" y="180" width="4" height="4" fill="#3b1f8e" opacity="0.05"/><rect x="180" y="180" width="4" height="4" fill="#3b1f8e" opacity="0.05"/>
<rect x="70" y="30" width="10" height="10" fill="#3b1f8e"/><rect x="80" y="30" width="10" height="10" fill="#3b1f8e"/><rect x="90" y="30" width="10" height="10" fill="#3b1f8e"/><rect x="100" y="30" width="10" height="10" fill="#3b1f8e"/><rect x="110" y="30" width="10" height="10" fill="#3b1f8e"/><rect x="120" y="30" width="10" height="10" fill="#3b1f8e"/><rect x="60" y="40" width="10" height="10" fill="#3b1f8e"/><rect x="130" y="40" width="10" height="10" fill="#3b1f8e"/><rect x="50" y="50" width="10" height="10" fill="#3b1f8e"/><rect x="140" y="50" width="10" height="10" fill="#3b1f8e"/><rect x="50" y="60" width="10" height="10" fill="#3b1f8e"/><rect x="140" y="60" width="10" height="10" fill="#3b1f8e"/><rect x="50" y="70" width="10" height="10" fill="#3b1f8e"/><rect x="140" y="70" width="10" height="10" fill="#3b1f8e"/><rect x="30" y="80" width="10" height="10" fill="#3b1f8e"/><rect x="40" y="80" width="10" height="10" fill="#3b1f8e"/><rect x="50" y="80" width="10" height="10" fill="#3b1f8e"/><rect x="140" y="80" width="10" height="10" fill="#3b1f8e"/><rect x="150" y="80" width="10" height="10" fill="#3b1f8e"/><rect x="160" y="80" width="10" height="10" fill="#3b1f8e"/><rect x="30" y="90" width="10" height="10" fill="#3b1f8e"/><rect x="40" y="90" width="10" height="10" fill="#3b1f8e"/><rect x="50" y="90" width="10" height="10" fill="#3b1f8e"/><rect x="140" y="90" width="10" height="10" fill="#3b1f8e"/><rect x="150" y="90" width="10" height="10" fill="#3b1f8e"/><rect x="160" y="90" width="10" height="10" fill="#3b1f8e"/><rect x="30" y="100" width="10" height="10" fill="#3b1f8e"/><rect x="40" y="100" width="10" height="10" fill="#3b1f8e"/><rect x="50" y="100" width="10" height="10" fill="#3b1f8e"/><rect x="140" y="100" width="10" height="10" fill="#3b1f8e"/><rect x="150" y="100" width="10" height="10" fill="#3b1f8e"/><rect x="160" y="100" width="10" height="10" fill="#3b1f8e"/><rect x="30" y="110" width="10" height="10" fill="#3b1f8e"/><rect x="40" y="110" width="10" height="10" fill="#3b1f8e"/><rect x="50" y="110" width="10" height="10" fill="#3b1f8e"/><rect x="140" y="110" width="10" height="10" fill="#3b1f8e"/><rect x="150" y="110" width="10" height="10" fill="#3b1f8e"/><rect x="160" y="110" width="10" height="10" fill="#3b1f8e"/>
</svg>