<svg xmlns="http://www.w3.org/2000/svg" width="200" height="200" viewBox="0 0 200 200">
<rect width="200" height="200" fill="#efeafd"/>
<rect x="12" y="12" width="4" height="4" fill="#3b1f8e" opacity="0.05"/><rect x="36" y="12" width="4" height="4" fill="#3b1f8e" opacity="0.05"/><rect x="60" y="12" width="4" height="4" fill="#3b1f8e" opacity="0.05"/><rect x="84" y="12" width="4" height="4" fill="#3b1f8e" opacity="0.05"/><rect x="108" y="12" width="4" height="4" fill="#3b1f8e" opacity="0.05"/><rect x="132" y="12" width="4" height="4" fill="#3b1f8e" opacity="0.05"/><rect x="156" y="12" width="4" height="4" fill="#3b1f8e" opacity="0.05"/><rect x="180" y="12" width="4" height="4" fill="#3b1f8e" opacity="0.05"/><rect x="12" y="36" width="4" height="4" fill="#3b1f8e" opacity="0.05"/><rect x="36" y="36" width="4" height="4" fill="#3b1f8e" opacity="0.05"/><rect x="60" y="36" width="4" height="4" fill="#3b1f8e" opacity="0.05"/><rect x="84" y="36" width="4" height="4" fill="#3b1f8e" opacity="0.05"/><rect x="108" y="36" width="4" height="4" fill="#3b1f8e" opacity="0.05"/><rect x="132" y="36" width="4" height="4" fill="#3b1f8e" opacity="0.05"/><rect x="156" y="36" width="4" height="4" fill="#3b1f8e" opacity="0.05"/><rect x="180" y="36" width="4" height="4" fill="#3b1f8e" opacity="0.05"/><rect x="12" y="60" width="4" height="4" fill="#3b1f8e" opacity="0.05"/><rect x="36" y="60" width="4" height="4" fill="#3b1f8e" opacity="0.05"/><rect x="60" y="60" width="4" height="4" fill="#3b1f8e" opacity="0.05"/><rect x="84" y="60" width="4" height="4" fill="#3b1f8e" opacity="0.05"/><rect x="108" y="60" width="4" height="4" fill="#3b1f8e" opacity="0.05"/><rect x="132" y="60" width="4" height="4" fill="#3b1f8e" opacity="0.05"/><rect x="156" y="60" width="4" height="4" fill="#3b1f8e" opacity="0.05"/><rect x="180" y="60" width="4" height="4" fill="#3b1f8e" opacity="0.05"/><rect x="12" y="84" width="4" height="4" fill="#3b1f8e" opacity="0.05"/><rect x="36" y="84" width="4" height="4" fill="#3b1f8e" opacity="0.05"/><rect x="60" y="84" width="4" height="4" fill="#3b1f8e" opacity="0.05"/><rect x="84" y="84" width="4" height="4" fill="#3b1f8e" opacity="0.05"/><rect x="108" y="84" width="4" height="4" fill="#3b1f8e" opacity="0.05"/><rect x="132" y="84" width="4" height="4" fill="#3b1f8e" opacity="0.05"/><rect x="156" y="84" width="4" height="4" fill="#3b1f8e" opacity="0.05"/><rect x="180" y="84" width="4" height="4" fill="#3b1f8e" opacity="0.05"/><rect x="12" y="108" width="4" height="4" fill="#3b1f8e" opacity="0.05"/><rect x="36" y="108" width="4" height="4" fill="#3b1f8e" opacity="0.05"/><rect x="60" y="108" width="4" height="4" fill="#3b1f8e" opacity="0.05"/><rect x="84" y="108" width="4" height="4" fill="#3b1f8e" opacity="0.05"/><rect x="108" y="108" width="4" height="4" fill="#3b1f8e" opacity="0.05"/><rect x="132" y="108" width="4" height="4" fill="#3b1f8e" opacity="0.05"/><rect x="156" y="108" width="4" height="4" fill="#3b1f8e" opacity="0.05"/><rect x="180" y="108" width="4" height="4" fill="#3b1f8e" opacity="0.05"/><rect x="12" y="132" width="4" height="4" fill="#3b1f8e" opacity="0.05"/><rect x="36" y="132" width="4" height="4" fill="#3b1f8e" opacity="0.05"/><rect x="60" y="132" width="4" height="4" fill="#3b1f8e" opacity="0.05"/><rect x="84" y="132" width="4" height="4" fill="#3b1f8e" opacity="0.05"/><rect x="108" y="132" width="4" height="4" fill="#3b1f8e" opacity="0.05"/><rect x="132" y="132" width="4" height="4" fill="#3b1f8e" opacity="0.05"/><rect x="156" y="132" width="4" height="4" fill="#3b1f8e" opacity="0.05"/><rect x="180" y="132" width="4" height="4" fill="#3b1f8e" opacity="0.05"/><rect x="12" y="156" width="4" height="4" fill="#3b1f8e" opacity="0.05"/><rect x="36" y="156" width="4" height="4" fill="#3b1f8e" opacity="0.05"/><rect x="60" y="156" width="4" height="4" fill="#3b1f8e" opacity="0.05"/><rect x="84" y="156" width="4" height="4" fill="#3b1f8e" opacity="0.05"/><rect x="108" y="156" width="4" height="4" fill="#3b1f8e" opacity="0.05"/><rect x="132" y="156" width="4" height="4" fill="#3b1f8e" opacity="0.05"/><rect x="156" y="156" width="4" height="4" fill="#3b1f8e" opacity="0.05"/><rect x="180" y="156" width="4" height="4" fill="#3b1f8e" opacity="0.05"/><rect x="12" y="180" width="4" height="4" fill="#3b1f8e" opacity="0.05"/><rect x="36" y="180" width="4" height="4" fill="#3b1f8e" opacity="0.05"/><rect x="60" y="180" width="4" height="4" fill="#3b1f8e" opacity="0.05"/><rect x="84" y="180" width="4" height="4" fill="#3b1f8e" opacity="0.05"/><rect x="108" y="180" width="4" height="4" fill="#3b1f8e" opacity="0.05"/><rect x="132" y="180" width="4" height="4" fill="#3b1f8e" opacity="0.05"/><rect x="156" y="180" width="4" height="4" fill="#3b1f8e" opacity="0.05"/><rect x="180" y="180" width="4" height="4" fill="#3b1f8e" opacity="0.05"/>

<path d="M52 112 a48 48 0 0 1 96 0" stroke="#3b1f8e" stroke-width="10" fill="none"/>
<rect x="42" y="104" width="20" height="34" rx="8" fill="#3b1f8e"/>
<rect x="138" y="104" width="20" height="34" rx="8" fill="#3b1f8e"/>
</svg>